<svg xmlns="http://www.w3.org/2000/svg" width="309" height="33" fill="#fff" fill-rule="nonzero"><path d="M45.76 25V10.3h5.22V7.648H37.288V10.3h5.244V25h3.228zm10.068 0v-8.904a5.16 5.16 0 0 1 1.272-.948c.448-.232.928-.348 1.44-.348.696 0 1.218.206 1.566.618s.522.994.522 1.746h0V25h2.964v-7.836a6.73 6.73 0 0 0-.27-1.9 4.22 4.22 0 0 0-.792-1.476c-.348-.412-.782-.732-1.302-.96s-1.116-.342-1.788-.342c-.776 0-1.452.14-2.028.42s-1.104.648-1.584 1.104h0V7.168h-2.964V25h2.964zm15.912.18a9.71 9.71 0 0 0 1.338-.096c.46-.064.912-.174 1.356-.33a6.19 6.19 0 0 0 1.278-.624 4.94 4.94 0 0 0 1.104-.966h0l-.864-1.08a.69.69 0 0 0-.228-.204c-.088-.048-.192-.072-.312-.072-.184 0-.374.056-.57.168l-.684.372c-.26.136-.564.26-.912.372s-.762.168-1.242.168c-.976 0-1.76-.296-2.352-.888s-.932-1.52-1.02-2.784h7.608c.136 0 .248-.018.336-.054s.158-.096.2-.18a1.1 1.1 0 0 0 .108-.348 4.29 4.29 0 0 0 .03-.558c0-.888-.132-1.678-.396-2.37s-.632-1.276-1.104-1.752a4.69 4.69 0 0 0-1.686-1.086c-.652-.248-1.366-.372-2.142-.372-.92 0-1.746.16-2.478.48s-1.352.754-1.86 1.302-.898 1.192-1.17 1.932-.408 1.53-.408 2.37c0 1.08.156 2.03.468 2.85s.74 1.508 1.284 2.064 1.184.976 1.92 1.26 1.532.426 2.388.426zm2.52-7.752h-5.568c.136-.896.448-1.588.936-2.076s1.164-.732 2.028-.732c.44 0 .824.074 1.152.222a2.27 2.27 0 0 1 .816.606c.216.256.376.554.48.894s.156.702.156 1.086h0zM86.98 25V13.792l-.018-.702-.066-.774 5.316 9.876c.12.224.276.398.468.522a1.21 1.21 0 0 0 .672.186h.444a1.21 1.21 0 0 0 .672-.186c.192-.124.348-.298.468-.522h0l5.244-9.84-.054.756-.018.684V25h2.844V7.648h-2.436l-.372.012c-.104.008-.198.028-.282.06s-.16.084-.228.156-.134.168-.198.288h0L94.3 17.776l-.384.804-.348.852-.342-.834-.378-.798-5.184-9.636a1.21 1.21 0 0 0-.204-.288c-.072-.072-.15-.124-.234-.156s-.178-.052-.282-.06l-.372-.012h-2.436V25h2.844zm24.564.18c.92 0 1.754-.148 2.502-.444s1.386-.72 1.914-1.272.936-1.22 1.224-2.004.432-1.664.432-2.64c0-.968-.144-1.844-.432-2.628s-.696-1.448-1.224-1.992-1.166-.964-1.914-1.26-1.582-.444-2.502-.444-1.756.148-2.508.444-1.394.716-1.926 1.26-.944 1.208-1.236 1.992-.438 1.66-.438 2.628c0 .976.146 1.856.438 2.64s.704 1.452 1.236 2.004 1.174.976 1.926 1.272 1.588.444 2.508.444zm0-2.28c-1.04 0-1.808-.346-2.304-1.038s-.744-1.698-.744-3.018.248-2.33.744-3.03 1.264-1.05 2.304-1.05c1.024 0 1.782.348 2.274 1.044s.738 1.708.738 3.036-.246 2.336-.738 3.024-1.25 1.032-2.274 1.032zm14.16 2.1l4.884-12.312h-2.34c-.2 0-.372.052-.516.156a.81.81 0 0 0-.3.396h0l-2.436 6.576a10.4 10.4 0 0 0-.354 1.128l-.246 1.104-.246-1.104-.342-1.128-2.376-6.576a.8.8 0 0 0-.306-.396c-.148-.104-.33-.156-.546-.156h0-2.46L123.016 25h2.688zm8.316-14.04a1.86 1.86 0 0 0 .744-.15 1.98 1.98 0 0 0 1.02-.99 1.69 1.69 0 0 0 .156-.72 1.8 1.8 0 0 0-.156-.744c-.104-.232-.242-.432-.414-.6a1.98 1.98 0 0 0-.606-.402 1.86 1.86 0 0 0-.744-.15c-.256 0-.498.05-.726.15s-.426.234-.594.402-.302.368-.402.6a1.86 1.86 0 0 0-.15.744c0 .256.05.496.15.72s.234.42.402.588.366.302.594.402.47.15.726.15zM135.496 25V12.688h-2.964V25h2.964zm8.58.18a9.71 9.71 0 0 0 1.338-.096c.46-.064.912-.174 1.356-.33a6.19 6.19 0 0 0 1.278-.624 4.94 4.94 0 0 0 1.104-.966h0l-.864-1.08a.69.69 0 0 0-.228-.204c-.088-.048-.192-.072-.312-.072-.184 0-.374.056-.57.168l-.684.372c-.26.136-.564.26-.912.372s-.762.168-1.242.168c-.976 0-1.76-.296-2.352-.888s-.932-1.52-1.02-2.784h7.608c.136 0 .248-.018.336-.054s.158-.096.2-.18a1.1 1.1 0 0 0 .108-.348 4.29 4.29 0 0 0 .03-.558c0-.888-.132-1.678-.396-2.37s-.632-1.276-1.104-1.752a4.69 4.69 0 0 0-1.686-1.086c-.652-.248-1.366-.372-2.142-.372-.92 0-1.746.16-2.478.48s-1.352.754-1.86 1.302-.898 1.192-1.17 1.932-.408 1.53-.408 2.37c0 1.08.156 2.03.468 2.85s.74 1.508 1.284 2.064 1.184.976 1.92 1.26 1.532.426 2.388.426zm2.52-7.752h-5.568c.136-.896.448-1.588.936-2.076s1.164-.732 2.028-.732c.44 0 .824.074 1.152.222a2.27 2.27 0 0 1 .816.606c.216.256.376.554.48.894s.156.702.156 1.086h0zM159.724 25v-7.068h6.492v-2.58h-6.492v-5.136h7.692V7.648h-10.944V25h3.252zm11.736-14.04a1.86 1.86 0 0 0 .744-.15 1.98 1.98 0 0 0 1.02-.99 1.69 1.69 0 0 0 .156-.72 1.8 1.8 0 0 0-.156-.744c-.104-.232-.242-.432-.414-.6a1.98 1.98 0 0 0-.606-.402 1.86 1.86 0 0 0-.744-.15c-.256 0-.498.05-.726.15s-.426.234-.594.402-.302.368-.402.6a1.86 1.86 0 0 0-.15.744c0 .256.05.496.15.72s.234.42.402.588.366.302.594.402.47.15.726.15zM172.936 25V12.688h-2.964V25h2.964zm6.312 0v-8.904a5.16 5.16 0 0 1 1.272-.948c.448-.232.928-.348 1.44-.348.696 0 1.218.206 1.566.618s.522.994.522 1.746h0V25h2.964v-7.836a6.73 6.73 0 0 0-.27-1.9 4.22 4.22 0 0 0-.792-1.476c-.348-.412-.782-.732-1.302-.96s-1.116-.342-1.788-.342c-.416 0-.8.04-1.152.12s-.682.196-1 .348a5.49 5.49 0 0 0-.876.54 6.75 6.75 0 0 0-.786.696h0l-.204-.972c-.12-.36-.372-.54-.756-.54h0-1.812V25h2.964zm14.388.18c.432 0 .834-.046 1.206-.138a4.72 4.72 0 0 0 1.044-.39c.324-.168.626-.368.906-.6a7.36 7.36 0 0 0 .804-.78h0l.24 1.188c.12.36.372.54.756.54h1.812V7.168h-2.964v6.504a4.62 4.62 0 0 0-1.308-.882c-.488-.22-1.076-.33-1.764-.33-.808 0-1.536.162-2.184.486s-1.204.774-1.668 1.35-.82 1.256-1.068 2.04-.372 1.632-.372 2.544c0 1.008.1 1.904.33 2.688s.532 1.442.936 1.974.886.938 1.446 1.218 1.176.42 1.848.42zm1.008-2.352a2.69 2.69 0 0 1-1.044-.2c-.312-.13-.576-.368-.792-.684s-.382-.724-.498-1.224-.174-1.1-.174-1.83c0-.712.068-1.33.204-1.854s.33-.956.582-1.296.56-.594.924-.762.77-.252 1.218-.252c.456 0 .882.084 1.278.252s.762.456 1.098.864h0v5.52c-.384.472-.792.836-1.224 1.092s-.956.384-1.572.384zm14.196 2.352a9.71 9.71 0 0 0 1.338-.096c.46-.064.912-.174 1.356-.33a6.19 6.19 0 0 0 1.278-.624 4.94 4.94 0 0 0 1.104-.966h0l-.864-1.08a.69.69 0 0 0-.228-.204c-.088-.048-.192-.072-.312-.072-.184 0-.374.056-.57.168l-.684.372c-.26.136-.564.26-.912.372s-.762.168-1.242.168c-.976 0-1.76-.296-2.352-.888s-.932-1.52-1.02-2.784h7.608c.136 0 .248-.018.336-.054s.158-.096.2-.18a1.1 1.1 0 0 0 .108-.348 4.29 4.29 0 0 0 .03-.558c0-.888-.132-1.678-.396-2.37s-.632-1.276-1.104-1.752a4.69 4.69 0 0 0-1.686-1.086c-.652-.248-1.366-.372-2.142-.372-.92 0-1.746.16-2.478.48s-1.352.754-1.86 1.302-.898 1.192-1.17 1.932-.408 1.53-.408 2.37c0 1.08.156 2.03.468 2.85s.74 1.508 1.284 2.064 1.184.976 1.92 1.26 1.532.426 2.388.426zm2.52-7.752h-5.568c.136-.896.448-1.588.936-2.076s1.164-.732 2.028-.732c.44 0 .824.074 1.152.222a2.27 2.27 0 0 1 .816.606c.216.256.376.554.48.894s.156.702.156 1.086h0zM219.4 25v-7.668c.304-.656.676-1.154 1.116-1.494s.968-.5 1.584-.5c.344 0 .62.028.828.084a2.02 2.02 0 0 0 .492.084c.136 0 .244-.03.324-.1s.132-.162.156-.306h0l.384-2.22c-.4-.28-.904-.42-1.512-.42-.736 0-1.4.22-1.992.66s-1.108 1.04-1.548 1.8h0l-.18-1.488c-.04-.272-.12-.464-.24-.576s-.332-.168-.636-.168h0-1.74V25h2.964zm18.336 0l3.828-11.856.15-.492.15-.564.15.564.15.492L245.956 25h2.916l5.388-17.352h-2.532c-.272 0-.504.072-.696.216s-.316.316-.372.516h0l-2.952 10.38-.186.804-.174.9a13.76 13.76 0 0 0-.456-1.704h0l-3.384-10.38c-.072-.224-.2-.402-.384-.534s-.416-.198-.696-.198h0-.948a1.11 1.11 0 0 0-.7.228c-.198.152-.314.32-.378.504h0l-3.408 10.38-.246.834-.2.954-.174-.954-.198-.834-2.952-10.38c-.064-.224-.2-.402-.378-.534s-.422-.198-.702-.198h0-2.712L234.82 25h2.916zm19.932-14.04a1.86 1.86 0 0 0 .744-.15 1.98 1.98 0 0 0 1.02-.99 1.69 1.69 0 0 0 .156-.72 1.8 1.8 0 0 0-.156-.744c-.104-.232-.242-.432-.414-.6a1.98 1.98 0 0 0-.606-.402 1.86 1.86 0 0 0-.744-.15c-.256 0-.498.05-.726.15s-.426.234-.594.402-.302.368-.402.6a1.86 1.86 0 0 0-.15.744c0 .256.05.496.15.72s.234.42.402.588.366.302.594.402.47.15.726.15zM259.144 25V12.688h-2.964V25h2.964zm7.056.18c.432 0 .834-.046 1.206-.138a4.72 4.72 0 0 0 1.044-.39c.324-.168.626-.368.906-.6a7.36 7.36 0 0 0 .804-.78h0l.24 1.188c.12.36.372.54.756.54h1.812V7.168h-2.964v6.504a4.62 4.62 0 0 0-1.308-.882c-.488-.22-1.076-.33-1.764-.33-.808 0-1.536.162-2.184.486s-1.204.774-1.668 1.35-.82 1.256-1.068 2.04-.372 1.632-.372 2.544c0 1.008.1 1.904.33 2.688s.532 1.442.936 1.974.886.938 1.446 1.218 1.176.42 1.848.42zm1.008-2.352a2.69 2.69 0 0 1-1.044-.2c-.312-.13-.576-.368-.792-.684s-.382-.724-.498-1.224-.174-1.1-.174-1.83c0-.712.068-1.33.204-1.854s.33-.956.582-1.296.56-.594.924-.762.77-.252 1.218-.252c.456 0 .882.084 1.278.252s.762.456 1.098.864h0v5.52c-.384.472-.792.836-1.224 1.092s-.956.384-1.572.384zm13.26 6.504c.944 0 1.784-.122 2.52-.366s1.358-.566 1.866-.966.896-.856 1.164-1.368.402-1.04.402-1.584c0-.584-.114-1.062-.342-1.434s-.528-.666-.9-.882-.794-.374-1.266-.474-.956-.17-1.452-.2l-1.452-.078-1.266-.1c-.372-.048-.672-.13-.9-.246s-.342-.298-.342-.546c0-.288.192-.548.576-.78a6.9 6.9 0 0 0 1.356.132c.688 0 1.326-.094 1.914-.282a4.68 4.68 0 0 0 1.524-.798 3.7 3.7 0 0 0 1.008-1.254c.244-.492.366-1.042.366-1.65 0-.256-.022-.5-.066-.732s-.106-.452-.186-.66h0l1.104-.204c.232-.04.396-.112.492-.216s.144-.248.144-.432h0v-1.104h-3.54a5.07 5.07 0 0 0-1.272-.474 6.55 6.55 0 0 0-1.488-.162c-.704 0-1.354.092-1.95.276s-1.112.45-1.548.798-.776.768-1.02 1.26-.366 1.042-.366 1.65c0 .752.178 1.408.534 1.968s.846 1.008 1.47 1.344c-.272.136-.508.3-.708.462s-.366.354-.498.546-.23.386-.294.582-.096.386-.096.57c0 .448.092.812.276 1.092a2.04 2.04 0 0 0 .732.672c-.624.232-1.112.544-1.464.936s-.528.876-.528 1.452c0 .424.112.832.336 1.224s.562.738 1.014 1.038 1.022.54 1.7.72 1.5.27 2.436.27zm-.036-10.788c-.36 0-.678-.05-.954-.15s-.504-.24-.684-.42a1.76 1.76 0 0 1-.408-.642c-.092-.248-.138-.516-.138-.804 0-.608.182-1.1.546-1.446s.9-.534 1.638-.534 1.274.178 1.638.534.546.838.546 1.446a2.33 2.33 0 0 1-.138.816c-.092.248-.228.46-.408.636s-.406.314-.678.414-.592.15-.96.15zm.084 8.676c-.544 0-1.004-.038-1.38-.114s-.682-.182-.918-.318-.408-.298-.516-.486-.162-.4-.162-.606c0-.328.102-.618.306-.87a2.68 2.68 0 0 1 .81-.654l1.146.102 1.152.06 1.056.1a4.35 4.35 0 0 1 .87.186c.248.084.444.202.588.354a.82.82 0 0 1 .216.588 1.29 1.29 0 0 1-.18.666c-.12.204-.3.38-.57.528s-.6.264-1 .348-.876.126-1.428.126zm13.308-2.04a9.71 9.71 0 0 0 1.338-.096c.46-.064.912-.174 1.356-.33a6.19 6.19 0 0 0 1.278-.624 4.94 4.94 0 0 0 1.104-.966h0l-.864-1.08a.69.69 0 0 0-.228-.204c-.088-.048-.192-.072-.312-.072-.184 0-.374.056-.57.168l-.684.372c-.26.136-.564.26-.912.372s-.762.168-1.242.168c-.976 0-1.76-.296-2.352-.888s-.932-1.52-1.02-2.784h7.608c.136 0 .248-.018.336-.054s.158-.096.2-.18a1.1 1.1 0 0 0 .108-.348 4.29 4.29 0 0 0 .03-.558c0-.888-.132-1.678-.396-2.37s-.632-1.276-1.104-1.752a4.69 4.69 0 0 0-1.686-1.086c-.652-.248-1.366-.372-2.142-.372-.92 0-1.746.16-2.478.48s-1.352.754-1.86 1.302-.898 1.192-1.17 1.932-.408 1.53-.408 2.37c0 1.08.156 2.03.468 2.85s.74 1.508 1.284 2.064 1.184.976 1.92 1.26 1.532.426 2.388.426zm2.52-7.752h-5.568c.136-.896.448-1.588.936-2.076s1.164-.732 2.028-.732c.44 0 .824.074 1.152.222a2.27 2.27 0 0 1 .816.606c.216.256.376.554.48.894s.156.702.156 1.086h0zm9.12 7.764a5.54 5.54 0 0 0 1.74-.276c.56-.184 1.056-.456 1.488-.816h0l-.888-1.44a1 1 0 0 0-.18-.198c-.056-.044-.128-.066-.216-.066a.41.41 0 0 0-.216.066l-.246.138c-.092.048-.2.094-.324.138s-.278.066-.462.066c-.32 0-.576-.108-.768-.324s-.288-.516-.288-.9h0v-6.672h3.24v-2.112h-3.24V8.92h-1.536c-.176 0-.322.044-.438.132s-.2.212-.222.372h0l-.624 3.36-1.98.324v1.176c0 .208.058.364.174.468a.6.6 0 0 0 .414.156h1.248v6.876c0 1.064.288 1.898.864 2.502s1.396.906 2.46.906zM16.606 22.985l-1.815-1.818h-.856l-.303-.293a7.01 7.01 0 0 0 1.701-4.582c0-3.9-3.152-7.042-7.042-7.042s-7.04 3.153-7.04 7.042 3.153 7.042 7.042 7.042a7.01 7.01 0 0 0 4.583-1.701l.293.303v.856l1.372 1.37L0 32.435V0l23.918 13.6a3 3 0 0 1 0 5.215l-7.3 4.16zM8.29 21.167a4.875 4.875 0 1 1 0-9.75 4.875 4.875 0 1 1 0 9.75z"/></svg>